<svg xmlns="http://www.w3.org/2000/svg" viewBox="0 0 32 32" fill="none">
  <!-- Simplified hummingbird for favicon -->
  <!-- Body -->
  <path d="M20 10c-2-3-6-4-9-3-3 1-5 4-6 7 0 2 0 4 1 5l-4 5c0 1 0 1 1 1l3-4c2 1 4 1 5 1 4-1 7-4 8-7 0-2 0-4-1-5h2z" fill="url(#fg1)"/>

  <!-- Wing -->
  <path d="M14 8c-1 1-2 2-2 3l9-5c-1-1-2-1-3 0l-4 2z" fill="url(#fg2)" opacity="0.9"/>
  <path d="M11 14l12-8c0 0-1 0-2 0l-10 6c-1 1-1 2 0 2z" fill="url(#fg2)" opacity="0.7"/>

  <!-- Beak -->
  <path d="M25 9l-5 1c0 0 0 1 0 1l6 2c0 0 1 0 0-1l-1-3z" fill="#1a1a2e"/>

  <!-- Eye -->
  <circle cx="18" cy="11" r="1" fill="#1a1a2e"/>

  <defs>
    <linearGradient id="fg1" x1="0%" y1="0%" x2="100%" y2="100%">
      <stop offset="0%" stop-color="#8B5CF6"/>
      <stop offset="100%" stop-color="#6366F1"/>
    </linearGradient>
    <linearGradient id="fg2" x1="0%" y1="0%" x2="100%" y2="0%">
      <stop offset="0%" stop-color="#C084FC"/>
      <stop offset="100%" stop-color="#818CF8"/>
    </linearGradient>
  </defs>
</svg>
