<svg xmlns="http://www.w3.org/2000/svg" viewBox="0 0 100 100" fill="none">
  <!-- Hummingbird body -->
  <path d="M65 35c-5-8-15-12-25-8-8 3-14 10-16 18-1 5 0 10 3 14l-12 16c-1 1 0 3 1 3h2l10-12c4 3 9 4 14 3 10-2 18-10 20-20 1-5 0-10-3-14h6z" fill="url(#grad1)"/>

  <!-- Wing -->
  <path d="M45 30c-3 1-5 4-5 7 0 2 1 4 3 5l25-15c-2-2-5-3-8-2l-15 5z" fill="url(#grad2)" opacity="0.9"/>
  <path d="M38 42c-2 2-2 5-1 7l35-22c-1-1-3-2-5-1L38 42z" fill="url(#grad2)" opacity="0.7"/>

  <!-- Beak -->
  <path d="M78 32l-13 3c-1 0-1 1 0 2l15 5c1 0 2-1 1-2l-3-8z" fill="#1a1a2e"/>

  <!-- Eye -->
  <circle cx="58" cy="38" r="2.5" fill="#1a1a2e"/>
  <circle cx="57.5" cy="37.5" r="1" fill="white"/>

  <!-- Tail feathers -->
  <path d="M20 72c-1 2 0 4 2 4l8-10c-4 1-8 3-10 6z" fill="url(#grad1)" opacity="0.8"/>
  <path d="M25 75c-1 1 0 3 2 3l6-9c-3 1-6 3-8 6z" fill="url(#grad1)" opacity="0.6"/>

  <defs>
    <linearGradient id="grad1" x1="0%" y1="0%" x2="100%" y2="100%">
      <stop offset="0%" stop-color="#8B5CF6"/>
      <stop offset="50%" stop-color="#A855F7"/>
      <stop offset="100%" stop-color="#6366F1"/>
    </linearGradient>
    <linearGradient id="grad2" x1="0%" y1="0%" x2="100%" y2="0%">
      <stop offset="0%" stop-color="#C084FC"/>
      <stop offset="100%" stop-color="#818CF8"/>
    </linearGradient>
  </defs>
</svg>
